<?xml version="1.0" standalone="no"?><!DOCTYPE svg PUBLIC "-//W3C//DTD SVG 1.1//EN" "http://www.w3.org/Graphics/SVG/1.1/DTD/svg11.dtd"><svg height="126" node-id="1" sillyvg="true" template-height="126" template-width="104" version="1.1" viewBox="0 0 104 126" width="104" xmlns="http://www.w3.org/2000/svg" xmlns:xlink="http://www.w3.org/1999/xlink"><defs node-id="28"></defs><g node-id="30"><g node-id="31"><path d="M 84.70 123.90 L 84.40 108.70 L 82.90 101.70 L 79.80 95.30 L 75.60 89.80 L 73.00 87.40 L 31.20 87.40 L 28.60 89.80 L 24.40 95.30 L 21.30 101.70 L 19.70 108.70 L 19.50 123.90" fill="#f4a14e" fill-rule="nonzero" group-id="1,2" id="Shape" node-id="5" stroke="none" target-height="36.5" target-width="65.2" target-x="19.5" target-y="87.4"></path><path d="M 42.00 87.40 L 31.20 87.40 L 28.60 89.80 L 24.40 95.30 L 21.30 101.70 L 19.70 108.70 L 19.50 123.90 L 30.30 123.90 L 30.60 108.70 L 32.10 101.70 L 35.20 95.30 L 39.40 89.80 L 42.00 87.40 Z" fill="#e28d40" fill-rule="nonzero" group-id="1,2" id="Shape" node-id="6" stroke="none" target-height="36.5" target-width="22.5" target-x="19.5" target-y="87.4"></path><path d="M 67.40 90.70 L 74.20 98.00 L 66.50 98.30 L 68.30 110.30 L 57.80 104.00 L 52.10 114.20 L 46.40 104.00 L 35.90 110.30 L 37.70 98.30 L 29.90 98.00 L 36.80 90.70" fill="#fcf8f2" fill-rule="nonzero" group-id="1,2" id="Shape" node-id="7" stroke="none" target-height="23.5" target-width="44.299995" target-x="29.9" target-y="90.7"></path><path d="M 27.50 26.40 L 23.10 24.60 L 17.00 20.90 L 13.90 18.30 L 10.80 15.00 L 7.30 9.70 L 5.90 6.60 L 5.70 5.20 L 6.00 3.90 L 6.80 2.80 L 8.00 2.10 L 9.40 1.90 L 10.70 2.20 L 11.70 3.00 L 13.90 7.30 L 15.70 10.00 L 16.60 7.40 L 17.40 6.20 L 18.40 5.40 L 19.70 5.10 L 21.10 5.30 L 22.30 6.00 L 23.10 7.10 L 23.40 8.40 L 23.20 9.80 L 21.20 15.30 L 25.60 18.00 L 31.60 20.60 L 72.50 20.60 L 78.50 18.00 L 83.00 15.30 L 81.00 9.80 L 80.80 8.40 L 81.10 7.10 L 81.90 6.00 L 83.10 5.30 L 84.50 5.10 L 85.70 5.40 L 86.80 6.20 L 87.50 7.40 L 88.50 10.00 L 90.30 7.30 L 92.40 3.00 L 93.50 2.20 L 94.80 1.90 L 96.20 2.10 L 97.30 2.80 L 98.10 3.90 L 98.40 5.20 L 98.20 6.60 L 95.20 12.50 L 93.40 15.00 L 90.30 18.30 L 87.10 20.90 L 81.00 24.60 L 76.70 26.40" fill="#c69a6a" fill-rule="nonzero" group-id="1,2" id="Shape" node-id="8" stroke="none" target-height="24.5" target-width="92.700005" target-x="5.7" target-y="1.9"></path><path d="M 81.70 43.30 L 86.10 47.60 L 88.80 49.40 L 91.90 51.00 L 95.10 52.10 L 98.40 52.80 L 102.00 53.00 L 101.80 49.50 L 101.10 46.20 L 100.10 43.00 L 98.60 40.00 L 96.80 37.30 L 94.70 34.80 L 92.30 32.60 L 89.60 30.70 L 86.70 29.20 L 83.60 28.00 L 80.30 27.20 L 76.80 26.90 L 27.20 26.90 L 23.70 27.20 L 20.40 28.00 L 17.30 29.20 L 14.40 30.70 L 11.80 32.60 L 9.30 34.80 L 7.20 37.30 L 5.40 40.00 L 3.90 43.00 L 2.90 46.20 L 2.20 49.50 L 2.00 53.00 L 5.60 52.80 L 8.90 52.10 L 12.10 51.00 L 15.20 49.40 L 17.90 47.60 L 22.30 43.30" fill="#f4a14e" fill-rule="nonzero" group-id="1,2" id="Shape" node-id="9" stroke="none" target-height="26.1" target-width="100" target-x="2" target-y="26.9"></path><path d="M 102.00 53.00 L 98.40 52.80 L 95.10 52.10 L 91.90 51.00 L 88.80 49.40 L 86.10 47.60 L 81.70 43.30 L 22.30 43.30 L 17.90 47.60 L 15.20 49.40 L 12.10 51.00 L 8.90 52.10 L 5.60 52.80 L 2.00 53.00 L 8.40 44.70 L 13.60 40.10 L 16.40 38.40 L 18.40 37.60 L 22.30 37.20 L 83.60 37.20 L 87.60 38.40 L 90.40 40.10 L 93.10 42.30 L 97.70 47.10 L 102.00 53.00 Z" fill="#ffdac5" fill-rule="nonzero" group-id="1,2" id="Shape" node-id="10" stroke="none" target-height="15.799999" target-width="100" target-x="2" target-y="37.2"></path><path d="M 21.90 67.90 L 20.60 67.60 L 19.40 66.90 L 18.30 65.70 L 17.00 62.40 L 16.80 60.30 L 17.00 58.20 L 18.30 54.90 L 19.40 53.60 L 20.60 52.90 L 21.90 52.60 L 82.20 52.60 L 83.60 52.90 L 84.80 53.60 L 86.70 56.40 L 87.40 60.30 L 87.20 62.40 L 85.90 65.70 L 84.80 66.90 L 83.60 67.60 L 82.20 67.90" fill="#efc1ab" fill-rule="nonzero" group-id="1,2" id="Shape" node-id="11" stroke="none" target-height="15.300003" target-width="70.600006" target-x="16.8" target-y="52.6"></path><path d="M 81.90 49.30 L 82.20 54.10 L 82.20 68.10 L 81.90 72.20 L 81.10 75.90 L 79.80 79.20 L 78.10 82.10 L 76.00 84.80 L 73.40 87.10 L 70.60 89.10 L 67.30 90.80 L 60.20 92.90 L 52.10 93.70 L 43.90 92.90 L 36.90 90.80 L 33.60 89.10 L 30.70 87.10 L 28.20 84.80 L 26.00 82.10 L 24.30 79.20 L 23.10 75.90 L 22.20 72.20 L 21.90 68.10 L 21.90 54.10 L 22.30 49.30" fill="#ffdac5" fill-rule="nonzero" group-id="1,2" id="Shape" node-id="12" stroke="none" target-height="44.399998" target-width="60.299995" target-x="21.9" target-y="49.3"></path><path d="M 31.60 68.10 L 31.60 54.10 L 32.00 49.30 L 22.30 49.30 L 21.90 54.10 L 21.90 68.10 L 22.20 72.20 L 23.10 75.90 L 24.30 79.20 L 26.00 82.10 L 28.20 84.80 L 30.70 87.10 L 33.60 89.10 L 36.90 90.80 L 40.30 92.00 L 47.90 93.50 L 52.10 93.70 L 56.90 93.40 L 52.20 92.60 L 47.90 91.30 L 44.00 89.50 L 41.30 87.80 L 38.90 85.80 L 36.80 83.50 L 35.00 81.00 L 33.60 78.20 L 32.50 75.20 L 31.90 71.80 L 31.60 68.10 Z" fill="#efc1ab" fill-rule="nonzero" group-id="1,2" id="Shape" node-id="13" stroke="none" target-height="44.399998" target-width="35" target-x="21.9" target-y="49.3"></path><path d="M 82.20 54.10 L 82.20 63.30 L 79.10 62.90 L 76.20 61.90 L 73.30 60.50 L 68.40 56.70 L 62.50 50.20 L 62.50 58.10 L 56.80 59.10 L 52.00 59.60 L 43.80 59.30 L 37.70 58.00 L 34.00 56.50 L 29.40 53.60 L 28.30 56.40 L 26.80 58.70 L 25.00 60.80 L 21.90 63.30 L 22.00 51.70 L 22.80 43.30 L 28.80 38.30 L 35.90 34.00 L 40.20 32.20 L 46.60 30.90 L 56.40 30.70 L 60.00 31.10 L 62.80 32.50 L 66.90 35.60 L 77.10 39.40 L 81.90 49.30 L 82.20 54.10 Z" fill="#5c5e70" fill-rule="nonzero" group-id="1,2" id="Shape" node-id="14" stroke="none" target-height="32.6" target-width="60.299995" target-x="21.9" target-y="30.7"></path><path d="M 24.90 33.00 L 26.20 29.00 L 28.00 25.40 L 30.40 22.00 L 33.20 19.10 L 36.30 16.60 L 39.90 14.50 L 43.70 13.00 L 47.70 12.10 L 52.10 11.70 L 55.90 12.00 L 59.60 12.70 L 63.00 13.90 L 66.30 15.60 L 69.20 17.60 L 71.90 20.00 L 74.40 22.80 L 76.40 25.90 L 78.10 29.30 L 79.30 33.00" fill="#f4a14e" fill-rule="nonzero" group-id="1,2" id="Shape" node-id="15" stroke="none" target-height="21.3" target-width="54.4" target-x="24.9" target-y="11.7"></path><path d="M 58.80 12.60 L 55.50 11.90 L 52.10 11.70 L 47.70 12.10 L 43.70 13.00 L 39.90 14.50 L 36.30 16.60 L 33.20 19.10 L 30.40 22.00 L 28.00 25.40 L 26.20 29.00 L 24.90 33.00 L 38.30 33.00 L 39.40 29.70 L 40.80 26.60 L 44.60 21.10 L 49.60 16.70 L 52.50 15.00 L 55.50 13.60 L 58.80 12.60 Z" fill="#e28d40" fill-rule="nonzero" group-id="1,2" id="Shape" node-id="16" stroke="none" target-height="21.3" target-width="33.9" target-x="24.9" target-y="11.7"></path><path d="M 32.00 33.00 L 31.60 55.20 L 29.40 53.60 L 28.30 56.40 L 26.80 58.70 L 25.00 60.80 L 21.90 63.30 L 21.90 54.10 L 22.30 49.30 L 32.00 33.00 Z" fill="#494b5b" fill-rule="nonzero" group-id="1,2" id="Shape" node-id="17" stroke="none" target-height="30.3" target-width="10.1" target-x="21.9" target-y="33"></path><path d="M 81.90 37.20 L 81.90 53.10 L 76.20 48.90 L 72.00 46.70 L 67.40 45.00 L 62.60 43.70 L 57.50 42.90 L 52.10 42.60 L 47.30 42.80 L 42.70 43.40 L 38.40 44.50 L 33.80 46.00 L 29.60 48.00 L 25.70 50.40 L 22.30 53.10 L 22.30 37.20 L 22.80 35.20 L 24.10 33.60 L 30.60 29.50 L 38.40 26.40 L 42.70 25.40 L 47.30 24.80 L 52.10 24.60 L 57.50 24.90 L 62.60 25.70 L 67.40 26.90 L 72.00 28.70 L 76.20 30.90 L 80.90 34.30 L 81.70 36.10 L 81.90 37.20 Z" fill="#c69a6a" fill-rule="nonzero" group-id="1,2" id="Shape" node-id="18" stroke="none" target-height="28.499998" target-width="59.600002" target-x="22.3" target-y="24.6"></path><path d="M 38.40 26.40 L 38.40 44.50 L 33.80 46.00 L 29.60 48.00 L 25.70 50.40 L 22.30 53.10 L 22.30 37.20 L 22.80 35.20 L 24.10 33.60 L 30.60 29.50 L 38.40 26.40 Z" fill="#b58657" fill-rule="nonzero" group-id="1,2" id="Shape" node-id="19" stroke="none" target-height="26.699999" target-width="16.100002" target-x="22.3" target-y="26.4"></path><path d="M 75.50 73.70 L 75.20 74.60 L 74.30 75.40 L 71.40 76.10 L 68.50 75.40 L 67.60 74.60 L 67.30 73.70 L 67.60 72.70 L 68.50 71.90 L 71.40 71.20 L 74.30 71.90 L 75.20 72.70 L 75.50 73.70 Z" fill="#fcb997" fill-rule="nonzero" group-id="1,2" id="Oval" node-id="20" stroke="none" target-height="4.9000015" target-width="8.199997" target-x="67.3" target-y="71.2"></path><path d="M 36.80 73.70 L 36.50 74.60 L 35.60 75.40 L 32.70 76.10 L 29.80 75.40 L 28.90 74.60 L 28.60 73.70 L 28.90 72.70 L 29.80 71.90 L 32.70 71.20 L 35.60 71.90 L 36.50 72.70 L 36.80 73.70 Z" fill="#fcb997" fill-rule="nonzero" group-id="1,2" id="Oval" node-id="21" stroke="none" target-height="4.9000015" target-width="8.199999" target-x="28.6" target-y="71.2"></path><path d="M 19.50 111.80 L 18.20 112.40 L 17.60 113.70 L 17.60 123.90 L 17.80 124.60 L 18.80 125.60 L 20.20 125.60 L 21.20 124.60 L 21.40 123.90 L 21.40 113.70 L 20.80 112.40 L 19.50 111.80 Z" fill="#000000" fill-rule="nonzero" group-id="1,2" id="Shape" node-id="22" stroke="none" target-height="13.799995" target-width="3.7999992" target-x="17.6" target-y="111.8"></path><path d="M 38.10 62.40 L 36.80 62.90 L 36.20 64.30 L 36.20 68.10 L 36.40 68.90 L 37.40 69.90 L 38.80 69.90 L 39.80 68.90 L 40.00 68.10 L 39.80 63.50 L 38.80 62.50 L 38.10 62.40 Z" fill="#000000" fill-rule="nonzero" group-id="1,2" id="Shape" node-id="23" stroke="none" target-height="7.5" target-width="3.7999992" target-x="36.2" target-y="62.4"></path><path d="M 66.90 62.40 L 65.60 62.90 L 65.10 64.30 L 65.10 68.10 L 65.20 68.90 L 66.20 69.90 L 67.70 69.90 L 68.70 68.90 L 68.80 68.10 L 68.70 63.50 L 67.70 62.50 L 66.90 62.40 Z" fill="#000000" fill-rule="nonzero" group-id="1,2" id="Shape" node-id="24" stroke="none" target-height="7.5" target-width="3.7000046" target-x="65.1" target-y="62.4"></path><path d="M 56.80 78.00 L 55.40 78.90 L 54.00 79.50 L 52.50 79.70 L 51.00 79.50 L 49.60 78.90 L 47.70 77.50 L 46.30 77.50 L 45.20 78.60 L 45.20 80.00 L 45.60 80.60 L 48.90 82.70 L 52.50 83.40 L 56.20 82.70 L 59.40 80.60 L 59.90 79.30 L 59.40 78.00 L 58.10 77.40 L 56.80 78.00 Z" fill="#000000" fill-rule="nonzero" group-id="1,2" id="Shape" node-id="25" stroke="none" target-height="6" target-width="14.700001" target-x="45.2" target-y="77.4"></path><path d="M 96.00 33.50 L 93.10 30.90 L 89.80 28.70 L 86.40 27.00 L 82.70 25.80 L 88.90 21.90 L 92.10 19.20 L 95.20 15.80 L 98.60 10.40 L 100.00 7.20 L 100.20 4.40 L 99.10 1.90 L 96.80 0.30 L 94.10 0.10 L 91.50 1.30 L 90.60 2.30 L 88.90 5.90 L 87.90 4.70 L 86.50 3.70 L 85.20 3.30 L 82.40 3.60 L 81.20 4.30 L 79.40 6.30 L 78.90 9.00 L 80.70 14.50 L 77.80 16.30 L 72.90 18.30 L 69.90 15.80 L 66.70 13.70 L 63.30 12.00 L 59.70 10.80 L 56.00 10.10 L 52.10 9.90 L 48.10 10.10 L 44.30 10.90 L 40.70 12.10 L 37.30 13.80 L 34.10 15.80 L 31.30 18.30 L 26.40 16.30 L 23.40 14.50 L 25.20 9.00 L 24.70 6.30 L 23.00 4.30 L 21.70 3.60 L 19.00 3.30 L 17.60 3.70 L 16.30 4.70 L 15.30 5.90 L 13.60 2.30 L 11.50 0.50 L 8.80 0.00 L 7.40 0.30 L 5.10 1.90 L 3.90 4.40 L 3.90 5.80 L 4.20 7.20 L 5.60 10.40 L 7.20 13.20 L 9.00 15.80 L 12.10 19.10 L 15.20 21.80 L 21.40 25.80 L 17.70 27.00 L 14.20 28.70 L 11.00 30.90 L 8.00 33.50 L 5.60 36.30 L 3.70 39.30 L 2.10 42.50 L 1.00 45.90 L 0.30 49.40 L 0.10 53.00 L 0.70 54.30 L 2.00 54.90 L 5.40 54.70 L 8.70 54.10 L 11.90 53.10 L 14.90 51.70 L 17.80 50.00 L 20.40 47.90 L 20.20 51.00 L 18.80 51.80 L 17.50 52.80 L 15.60 56.00 L 14.90 60.30 L 15.10 62.50 L 16.40 66.10 L 17.40 67.60 L 20.10 69.50 L 20.50 73.10 L 21.20 76.40 L 22.40 79.50 L 24.00 82.40 L 25.90 85.10 L 28.30 87.50 L 25.80 90.20 L 21.70 96.20 L 18.90 103.00 L 18.10 106.60 L 18.40 108.00 L 19.00 108.50 L 20.00 108.80 L 20.60 108.70 L 21.60 107.90 L 23.70 100.80 L 25.10 97.80 L 28.90 92.30 L 31.30 89.80 L 33.70 91.30 L 28.60 96.80 L 28.10 97.70 L 28.20 98.80 L 28.90 99.60 L 29.90 99.90 L 35.50 100.10 L 34.10 110.00 L 34.20 111.00 L 34.90 111.80 L 35.90 112.10 L 36.90 111.90 L 45.70 106.60 L 50.50 115.20 L 51.10 115.80 L 52.10 116.10 L 53.00 115.80 L 53.70 115.20 L 58.50 106.60 L 67.30 111.90 L 68.30 112.10 L 69.30 111.80 L 70.00 111.00 L 70.10 110.00 L 68.70 100.10 L 74.30 99.90 L 75.30 99.60 L 76.00 98.80 L 76.10 97.70 L 75.60 96.80 L 70.50 91.30 L 72.90 89.80 L 75.80 93.00 L 78.30 96.40 L 80.20 100.10 L 81.60 104.00 L 82.50 108.20 L 83.00 124.60 L 83.90 125.60 L 84.70 125.80 L 86.00 125.20 L 86.50 123.90 L 86.50 112.50 L 86.20 107.70 L 85.30 103.20 L 83.80 98.90 L 81.70 94.80 L 79.00 91.00 L 75.90 87.50 L 78.20 85.10 L 80.20 82.40 L 81.80 79.50 L 82.90 76.40 L 83.70 73.10 L 84.10 69.50 L 86.70 67.60 L 87.80 66.10 L 89.10 62.50 L 89.30 60.30 L 88.60 56.00 L 86.70 52.80 L 85.40 51.80 L 84.00 51.00 L 83.70 48.10 L 89.20 51.80 L 95.40 54.10 L 102.00 54.90 L 102.80 54.70 L 103.70 53.80 L 103.70 49.40 L 103.00 45.90 L 101.90 42.50 L 100.30 39.30 L 98.40 36.30 L 96.00 33.50 Z M 99.10 45.90 L 94.70 41.20 L 92.10 39.00 L 87.40 36.30 L 83.40 35.30 L 82.60 33.60 L 80.90 31.90 L 80.00 29.10 L 83.70 30.00 L 87.20 31.50 L 90.40 33.60 L 93.30 36.10 L 95.80 39.10 L 97.70 42.40 L 99.10 45.90 Z M 23.80 54.20 L 27.60 51.40 L 31.80 49.00 L 36.50 47.00 L 41.50 45.60 L 46.60 44.80 L 52.10 44.40 L 57.10 44.70 L 61.90 45.40 L 66.50 46.60 L 71.00 48.30 L 75.00 50.40 L 80.40 54.20 L 80.40 61.30 L 76.20 59.90 L 71.40 56.80 L 69.00 54.70 L 63.60 48.70 L 62.60 48.30 L 61.40 48.70 L 60.80 49.60 L 60.60 56.60 L 55.30 57.40 L 47.20 57.80 L 40.50 56.80 L 34.70 54.80 L 29.90 51.80 L 28.90 51.80 L 28.10 52.30 L 26.00 56.60 L 23.80 59.40 L 23.80 54.20 Z M 84.10 16.80 L 84.80 15.20 L 82.70 9.20 L 82.70 8.50 L 83.20 7.40 L 83.70 7.10 L 85.00 7.10 L 85.80 8.00 L 87.30 11.40 L 88.20 11.80 L 89.20 11.70 L 90.00 11.10 L 92.00 8.10 L 93.80 4.30 L 94.90 3.70 L 95.50 3.80 L 96.10 4.20 L 96.60 5.30 L 95.30 8.60 L 94.00 11.00 L 89.90 16.10 L 84.50 20.50 L 77.50 24.10 L 75.60 21.30 L 79.20 19.70 L 84.10 16.80 Z M 52.10 13.60 L 55.60 13.80 L 58.90 14.50 L 62.10 15.60 L 65.10 17.10 L 68.00 19.00 L 72.60 23.50 L 75.70 28.50 L 72.30 26.80 L 67.90 25.30 L 66.70 25.90 L 66.30 26.60 L 66.40 28.00 L 67.50 28.90 L 71.60 30.60 L 75.30 32.60 L 79.00 35.10 L 79.70 36.00 L 80.00 37.20 L 80.00 49.20 L 76.00 46.70 L 71.70 44.60 L 67.10 42.90 L 62.30 41.70 L 57.30 41.00 L 52.10 40.70 L 46.90 41.00 L 41.90 41.70 L 37.10 42.90 L 32.40 44.60 L 28.10 46.70 L 24.20 49.20 L 24.20 37.20 L 24.40 36.00 L 25.20 35.10 L 29.00 32.50 L 33.00 30.40 L 37.50 28.70 L 42.10 27.40 L 47.00 26.70 L 52.10 26.40 L 62.00 27.30 L 63.10 26.50 L 63.40 24.90 L 62.90 24.20 L 61.90 23.60 L 57.10 22.90 L 47.80 22.90 L 39.60 24.20 L 35.70 25.30 L 28.50 28.50 L 30.10 25.60 L 32.00 23.00 L 34.20 20.60 L 39.40 16.90 L 42.40 15.50 L 45.50 14.50 L 48.70 13.80 L 52.10 13.60 Z M 7.70 5.90 L 7.60 5.30 L 8.10 4.20 L 8.60 3.80 L 9.90 3.90 L 10.70 4.80 L 12.20 8.10 L 14.20 11.10 L 15.00 11.70 L 16.00 11.80 L 16.90 11.40 L 17.40 10.60 L 18.70 7.50 L 19.80 7.00 L 21.00 7.40 L 21.50 8.50 L 21.40 9.20 L 19.40 14.60 L 19.70 16.30 L 22.70 18.50 L 28.50 21.30 L 26.60 24.10 L 22.20 22.00 L 16.90 18.40 L 14.20 16.00 L 11.70 13.10 L 8.80 8.60 L 7.70 5.90 Z M 10.70 36.10 L 13.60 33.50 L 16.90 31.50 L 20.40 30.00 L 24.20 29.10 L 23.30 31.90 L 21.60 33.60 L 20.70 35.30 L 16.80 36.20 L 12.00 39.00 L 9.40 41.20 L 4.90 45.90 L 6.30 42.40 L 8.20 39.10 L 10.70 36.10 Z M 19.10 44.00 L 16.20 46.60 L 12.90 48.50 L 9.40 50.00 L 5.70 50.90 L 9.90 45.90 L 15.00 41.40 L 16.90 40.30 L 20.40 39.10 L 20.40 42.60 L 19.10 44.00 Z M 20.10 55.60 L 20.10 64.90 L 19.00 63.00 L 18.60 60.30 L 19.00 57.60 L 20.10 55.60 Z M 70.00 96.30 L 65.70 96.60 L 64.70 97.80 L 65.90 106.60 L 58.10 102.20 L 57.30 102.20 L 56.20 103.10 L 52.10 110.40 L 48.00 103.10 L 46.80 102.20 L 45.40 102.40 L 38.30 106.60 L 39.40 97.80 L 38.50 96.60 L 34.10 96.30 L 37.30 92.90 L 41.80 94.40 L 46.70 95.30 L 52.10 95.60 L 57.40 95.30 L 62.40 94.40 L 66.90 92.90 L 70.00 96.30 Z M 72.30 85.70 L 69.60 87.50 L 66.60 89.00 L 63.30 90.20 L 56.10 91.60 L 52.10 91.80 L 48.10 91.60 L 40.90 90.20 L 37.50 89.00 L 34.60 87.50 L 31.90 85.70 L 29.50 83.40 L 27.40 80.90 L 25.90 78.00 L 24.70 75.00 L 24.00 71.70 L 23.80 68.10 L 23.80 64.30 L 27.00 61.50 L 28.70 59.30 L 30.30 56.60 L 32.80 58.00 L 39.60 60.50 L 47.50 61.50 L 51.80 61.50 L 56.90 61.00 L 63.50 59.60 L 64.30 58.70 L 64.40 55.40 L 68.60 59.30 L 71.20 61.30 L 74.00 63.00 L 77.10 64.30 L 80.40 65.00 L 80.10 71.70 L 79.40 75.00 L 78.30 78.00 L 76.70 80.90 L 74.70 83.40 L 72.30 85.70 Z M 84.10 64.90 L 84.10 55.60 L 85.10 57.60 L 85.50 60.30 L 85.10 63.00 L 84.10 64.90 Z M 83.70 42.80 L 83.70 39.10 L 85.50 39.50 L 89.10 41.50 L 94.20 45.90 L 98.30 50.90 L 94.60 50.00 L 91.10 48.50 L 87.80 46.60 L 83.70 42.80 Z" fill="#000000" fill-rule="nonzero" group-id="1,2" id="Shape" node-id="26" stroke="none" target-height="125.8" target-width="103.6" target-x="0.1" target-y="0"></path></g></g></svg>